<svg xmlns="http://www.w3.org/2000/svg" width="661" height="328" viewBox="0 0 661 328">
  <defs>
    <style>
      .cls-1 {
        fill-rule: evenodd;
      }
    </style>
  </defs>
  <path id="谱绘" class="cls-1" d="M271.172,92.395q5.859,3.914,6.836-.977a7.615,7.615,0,0,0,.976-2.93,11.954,11.954,0,0,0-2.929-1.953q-7.829-1.946-20.508-4.883c-2.609-.641-4.883.977-6.836,4.883q-27.351,6.844-48.828,13.672-17.579,6.845-26.367,7.813c-2.61,1.312-2.289,1.953.976,1.953a26.854,26.854,0,0,0,15.625-2.93,8.648,8.648,0,0,0,3.906-.976q20.508-6.822,34.18-10.743c0.641,0,.977.656,0.977,1.953a0.859,0.859,0,0,0,.976.977c1.953,1.953,2.93,5.219,2.93,9.766a31.95,31.95,0,0,0-.977,7.812,41.689,41.689,0,0,0-.976,7.813q-1.968.984-6.836,3.906-9.774,3.913-11.719,3.906c-0.656-3.25-.336-5.2.977-5.859q3.891-1.945-10.742-13.672c-2.61-.641-2.93,0-0.977,1.953q3.891,5.859,3.906,20.508-4.9,2.93-9.765,5.859-3.915,1.969-5.86,2.93-4.9,1.968-5.859.977-0.984,0,0-5.86a2.883,2.883,0,0,0-1.953-.976c-0.656-.641-0.977-0.641-0.977,0q-5.859,10.756-1.953,16.6c1.3,1.953,3.571,2.289,6.836.977q3.891-5.861,20.508-15.625,0,11.718-1.953,17.578a10.82,10.82,0,0,0-.977,4.883,7.777,7.777,0,0,1,.977,2.929q-11.719,2.929-31.25,7.813-12.7,3.913-16.6,2.93c-3.906.656-4.242,1.312-.976,1.953q6.821,3.913,16.6,0a2.821,2.821,0,0,0,1.953-.977q13.665-3.891,31.25-7.812a17.485,17.485,0,0,1,4.883,7.812q1.945,1.968,3.906-2.93a7.776,7.776,0,0,0-.976-2.929q-0.984-.962,0-2.93a29.023,29.023,0,0,0,4.883-.977,31.826,31.826,0,0,0,7.812-1.953q2.93,5.861,5.859,5.86,0.961,0.984,2.93-6.836,45.891-5.859,66.406.976,5.86-.961,2.93-5.859a15.835,15.835,0,0,1-4.883-.977q-13.687-5.859-17.578-6.836c-3.265-.64-5.859,0-7.812,1.954q0.96,2.93-39.063,6.836a41.958,41.958,0,0,1,.977-15.625q36.117-19.524,42.968-19.532,4.875-.961,1.954-4.883-6.844-5.859-12.7-5.859-8.789,1.968-31.25,6.836,0-12.68,5.86-13.672a1.724,1.724,0,0,0,1.953-1.953,1.941,1.941,0,0,0-.977-2.93c-1.312,0-3.265-.641-5.859-1.953-2.61-1.953-4.883-3.57-6.836-4.883l-0.977-.977q24.4-5.859,41.016-1.953h0Zm-139.649,45.9q-4.9,8.79-30.273,14.649c-2.609,1.312-2.609,1.953,0,1.953a54.863,54.863,0,0,0,30.273-8.789q1.946-.962,2.93,0a4.036,4.036,0,0,1,.977,2.929q-14.649,54.7-10.742,78.125v2.93a16.831,16.831,0,0,0,4.882,8.789q1.945,2.929,3.907,0V237.9a26.117,26.117,0,0,1,4.882-6.836l1.954-1.954q16.593-22.452,24.414-44.921c-0.657-1.954-1.313-1.954-1.954,0q-9.772,21.492-28.32,41.015L132.5,227.16c-1.312,1.313-2.289,1.953-2.93,1.953s-0.976-.976-0.976-2.929q-4.9-21.469,10.742-72.266,1.945-7.8,6.836-7.812c1.953-.641,2.93-2.274,2.93-4.883q-3.915-2.93-13.672-5.86c-1.313,0-2.61.977-3.907,2.93h0ZM259.453,50.4Q228.189,61.16,201.836,72.864c-3.906,1.953-5.859,1.312-5.859-1.953V61.145c0-2.594-.657-2.594-1.954,0a8.651,8.651,0,0,0-.976,3.906,118.619,118.619,0,0,0-3.906,11.719l-1.953,1.953v3.906q1.944,8.789,4.882,8.789c2.594-.641,3.907-1.953,3.907-3.906q0.96-10.735,61.523-34.18c1.3,0.656,1.953,1.312,1.953,1.953a335.3,335.3,0,0,1-58.594,38.086q-2.929,2.93,0,1.953,26.368-9.75,52.735-29.3,12.68-8.789,17.578-8.789c1.3,0.656,2.273,0,2.93-1.953q0.96-1.945,0-2.93a23.25,23.25,0,0,0-10.743-4.883c-2.609,1.312-3.906,2.289-3.906,2.93h0Zm-34.18,134.766c-5.859,1.953-10.1,3.266-12.695,3.906-1.953.657-2.93,1.313-2.93,1.954-0.656.656,0,.976,1.954,0.976,3.906,1.312,7.156.977,9.765-.976a115.343,115.343,0,0,1,13.672-4.883q9.75,0,12.7,6.836,8.79,32.226,6.836,54.687-3.913,7.8-9.765,7.813a22.511,22.511,0,0,1-12.7-3.907q-6.843-1.968-1.953,1.954A102.808,102.808,0,0,1,247.734,267.2c3.907,3.251,6.5,2.93,7.813-.976a121.8,121.8,0,0,0,1.953-23.438q0-15.609-.977-33.2,0-6.82,5.86-11.719c0.641-1.953,0-3.906-1.953-5.859a42,42,0,0,1-7.813-3.906c-2.609-1.3-4.242-2.594-4.883-3.906a24.38,24.38,0,0,0-16.6-1.954,25.1,25.1,0,0,0-5.86,2.93h0Zm-31.25,31.25c0,3.906.321,6.516,0.977,7.813,0.641,3.265,0,4.562-1.953,3.906q-5.859,3.913,0,7.812a38.464,38.464,0,0,0,4.883,5.86,2.766,2.766,0,0,0,1.953.976c0.641,0.656,2.93.977,6.836,0.977a30.181,30.181,0,0,0,10.742,0q4.875-.962,19.531-0.977a15.941,15.941,0,0,0,4.883-.976,11.161,11.161,0,0,0,2.93-1.953,3.146,3.146,0,0,0-1.953-2.93,39.862,39.862,0,0,0-19.532.977q-9.772,4.9-16.6,5.859a39.729,39.729,0,0,1-4.883-15.625q-1.968-9.75-3.906-18.555a2.885,2.885,0,0,0-1.953-.976,2.817,2.817,0,0,0-.977,1.953,27.157,27.157,0,0,1-.977,5.859h0ZM138.359,73.84q3.891,3.914-7.812,8.789c-1.312,1.312-1.953,2.289-1.953,2.93q0,0.984,2.929,0a128.3,128.3,0,0,0,15.625-2.93c1.3-.641,2.93-0.32,4.883.977,4.547,1.312,6.836-.32,6.836-4.883a151.51,151.51,0,0,0-30.273-16.6c-3.266-.641-3.906-0.32-1.953.977A59.016,59.016,0,0,1,138.359,73.84h0ZM231.133,142.2q-13.687,5.86-19.531,8.789a36.142,36.142,0,0,1,.976-14.648q12.679-5.859,18.555-8.789V142.2h0Zm34.179-25.39q4.876,0,1.954,1.953-4.9,4.9-23.438,16.6a91.775,91.775,0,0,1-7.812,4.883v-7.812a42.163,42.163,0,0,0,.976-6.836q18.54-6.82,28.32-8.789h0Zm-41.992,91.8a11.367,11.367,0,0,0-2.929,1.953q-7.828,4.9-12.7,5.859-3.913,2.93,0,1.953,11.72-1.946,9.766-.976-0.984,2.929,0,2.929c0.641,0,2.273-.64,4.883-1.953a39.186,39.186,0,0,1,12.695-4.883,2.589,2.589,0,0,0,2.93-2.929c0.641-1.953,0-3.25-1.953-3.906q-9.774,0-12.7,1.953h0Zm-1.953-52.735q1.946,3.915,2.93,5.86c-3.266.656-6.836,1.312-10.742,1.953a8.557,8.557,0,0,1-.977-3.906,26.231,26.231,0,0,1-.976-5.86,31.081,31.081,0,0,1,5.859-1.953,11.178,11.178,0,0,0,2.93-1.953,18.292,18.292,0,0,0,.976,5.859h0Zm8.789,2.93c-1.953.656-4.242-1.953-6.836-7.813a2.764,2.764,0,0,1-.976-1.953,8.648,8.648,0,0,0,3.906-.976,10.412,10.412,0,0,0,3.906-1.953V158.8h0Zm162.11-88.867a3.97,3.97,0,0,0-.977,2.93,114.465,114.465,0,0,1-4.883,17.578q-12.7,27.352-24.414,55.664-4.9,1.968-5.859,2.929l-1.953.977q-5.86,3.913-.977,8.789,2.93,3.913,6.836-.977,7.8-6.821,31.25-19.531-7.827,11.719-19.531,39.063a7.509,7.509,0,0,0-.977,2.929c-1.312,2.61-2.609,4.242-3.906,4.883-1.312,1.312-1.312,2.93,0,4.883q0.962,3.913,4.883.977l1.953-.977a88.71,88.71,0,0,1,9.766-6.836q19.523-10.734,29.3-21.484,3.891-3.891-.976-1.953-20.508,16.615-39.063,22.46,22.454-50.766,47.852-71.289c1.953-.64,2.273-2.273.976-4.882-3.265-3.907-5.859-4.548-7.812-1.954q-5.859,7.828-12.695,17.579-3.915,5.859-5.86,8.789a25.207,25.207,0,0,1-6.836,3.906,87.91,87.91,0,0,1-20.507,10.742q14.648-36.117,30.273-61.523,3.891-5.859-2.93-12.7a7.783,7.783,0,0,0-2.929-.977h0Zm74.218,1.953q3.891-1.945,10.743,6.836,8.789,9.773,24.414,34.18,11.718,19.546,21.484,26.367,5.859,7.827,11.719,5.859,8.788,0.984,17.578,1.953,7.8,0.984,14.648,1.953c1.953,0,2.274-.641.977-1.953q-12.7-8.788-31.25-8.789-12.7,0-14.649-5.859Q507.5,117.785,482.109,74.817c-1.312-2.594-2.929-3.906-4.882-3.906q-7.828-1.946-12.7,0,2.929-7.8,5.86-8.789v-2.93q-3.915-1.946-9.766-.977c-1.312,0-1.633.656-.977,1.953a1.215,1.215,0,0,0,0,1.953c1.3-.641,1.618.656,0.977,3.906q-8.788,24.422-34.18,64.453-1.968,2.93-5.859,8.789-7.828,11.718-9.766,16.6c-0.656,2.61-.335,2.93.977,0.977q10.734-12.681,24.414-34.18,8.789-12.68,19.531-34.18a65.668,65.668,0,0,1,4.883-9.766l1.953-5.859c1.3,0.656,2.594.336,3.906-.977h0ZM464.531,192a95.044,95.044,0,0,1-17.578,43.945c-4.562,5.219-9.125,8.133-13.672,8.789q-1.968.962,0,2.93l0.977,1.953a15.28,15.28,0,0,0,3.906,2.93c0.641,1.953,1.953,1.953,3.906,0q10.735-8.788,20.508-10.742a92.33,92.33,0,0,0,14.649-4.883q21.468-6.82,26.367-9.766a125.16,125.16,0,0,0,4.883,11.719c1.3,3.265,2.594,5.2,3.906,5.859q2.929,7.806,9.765,5.86,3.891-3.913,1.954-6.836-9.774-15.611-30.274-32.227-5.859-3.891-.976,1.953,5.859,6.844,9.765,11.719-1.968,1.968-24.414,5.86-14.647,4.9-25.391,7.812-1.968.984-2.929,0c-0.656-.641-0.336-1.617.976-2.93q12.681-17.577,17.579-31.25,1.944-3.891-1.954-13.671c-1.312-1.3-1.953-.977-1.953.976h0ZM490.9,171.5q-8.789,2.929-33.2,9.766Q433.274,189.089,421.562,192c-1.953.656-2.929,1.312-2.929,1.953,0,0.656.976,0.977,2.929,0.977a50.375,50.375,0,0,0,26.368-4.883q46.875-18.54,76.172-14.648c2.594-.641,3.906-2.594,3.906-5.86q-11.719-4.875-20.508-4.883c-1.953.656-2.609,0.977-1.953,0.977q-6.845.984-7.813,2.93c-1.953,2.609-4.242,3.585-6.836,2.929h0ZM357.109,230.09c-3.265,1.312-3.906,2.93-1.953,4.883A18.794,18.794,0,0,0,370.781,234a206.838,206.838,0,0,0,47.852-34.179q5.859-4.877-.977-0.977-45.913,32.226-60.547,31.25h0Zm82.032-83.008c-1.953.656-2.93,1.312-2.93,1.953,0,0.656.977,0.977,2.93,0.977q9.75,3.913,17.578-1.953a127.335,127.335,0,0,1,31.25-8.789c4.547-.641,6.5-1.953,5.859-3.907q-6.843-6.82-13.672-1.953-8.788,5.861-41.015,13.672h0Z"/>
</svg>
